# xmcd
#
# Track frame offsets: 
#        150
#        10413
#        24455
#        28493
#        35076
#        38191
#        50388
#        55591
#        74832
#        95468
#        98878
#        109236
#        116924
#        128947
#        133899
#        142098
#        154452
#        165221
#        184473
#        197618
#        210654
#        222646
#        242405
#        256595
#        282396
#
# Disc length: 3929 seconds
#
# Revision: 0
# Processed by: cddbd v1.5.2PL0 Copyright (c) Steve Scherf et al.
# Submitted via: ExactAudioCopyFreeDBPlugin 1.0
#
DISCID=850f5719
DTITLE=Skaldowie - Pastorałki
DYEAR=2013
DGENRE=Pop-Folk
TTITLE0=Po górach, po chmurach (Po górach po chmurach 1968)
TTITLE1=Basetlo, basetlino (Po górach po chmurach 1968)
TTITLE2=Od Krakowa czarny las (Po górach po chmurach 1968)
TTITLE3=Dziewczyno, dziewczyno (Po górach po chmurach 1968)
TTITLE4=Każdy chce do Betlejema (Po górach po chmurach 1968)
TTITLE5=Ciemno tej nocy betlejemskiej było (Po górach po chmurach 1968
TTITLE5=)
TTITLE6=Panie Jezu dobry (Po górach po chmurach 1968)
TTITLE7=Zjechaliśmy od wieczora bujnymi koniami (Po górach po chmurach
TTITLE7=1968)
TTITLE8=Nie płacz dzieciąteczko (Po górach po chmurach 1968)
TTITLE9=Żebyśmy chodzili w samiuśkim jedwabiu (Po górach po chmurach 1
TTITLE9=968)
TTITLE10=Po górach, po chmurach (Kolędnicy 1971)
TTITLE11=Dziewczyno, dziewczyno (Kolędnicy 1971)
TTITLE12=Basetlo, basetlino (Kolędnicy 1971)
TTITLE13=Szli Adam z Ewą do raju (Kolędnicy 1971)
TTITLE14=Aria osła (Kolędnicy 1971)
TTITLE15=Ciemno tej nocy betlejemskiej było (Kolędnicy 1971)
TTITLE16=Po górach, po chmurach (EP Pastorałki 1972)
TTITLE17=Nie płacz dzieciąteczko (EP Pastorałki 1972)
TTITLE18=Basetlo, basetlino (EP Pastorałki 1972)
TTITLE19=Ciemno tej nocy betlejemskiej było (EP Pastorałki 1972)
TTITLE20=Będzie kolęda (bonus)
TTITLE21=Po śniegu, po kolędzie (bonus)
TTITLE22=Kłaniaj się Tatry (bonus)
TTITLE23=Noc Betlejemska (bonus)
TTITLE24=Będzie kolęda (wersja instrumentalna) (bonus)
EXTD=
EXTT0=
EXTT1=
EXTT2=
EXTT3=
EXTT4=
EXTT5=
EXTT6=
EXTT7=
EXTT8=
EXTT9=
EXTT10=
EXTT11=
EXTT12=
EXTT13=
EXTT14=
EXTT15=
EXTT16=
EXTT17=
EXTT18=
EXTT19=
EXTT20=
EXTT21=
EXTT22=
EXTT23=
EXTT24=
PLAYORDER=
